<mxfile host="app.diagrams.net" modified="2023-07-10T09:53:54.843Z" agent="Mozilla/5.0 (Windows NT 10.0; Win64; x64) AppleWebKit/537.36 (KHTML, like Gecko) Chrome/114.0.0.0 Safari/537.36" etag="vYvwDhsyutQ6oBprR3LS" version="21.6.1" type="github">
  <diagram id="C5RBs43oDa-KdzZeNtuy" name="Page-1">
    <mxGraphModel dx="1434" dy="764" grid="1" gridSize="10" guides="1" tooltips="1" connect="1" arrows="1" fold="1" page="1" pageScale="1" pageWidth="827" pageHeight="1169" math="0" shadow="0">
      <root>
        <mxCell id="WIyWlLk6GJQsqaUBKTNV-0" />
        <mxCell id="WIyWlLk6GJQsqaUBKTNV-1" parent="WIyWlLk6GJQsqaUBKTNV-0" />
        <mxCell id="IfH2uEhnr56U0vIwc1G2-0" value="A" style="whiteSpace=wrap;strokeWidth=2;" vertex="1" parent="WIyWlLk6GJQsqaUBKTNV-1">
          <mxGeometry x="190" y="160" width="26" height="34" as="geometry" />
        </mxCell>
        <mxCell id="IfH2uEhnr56U0vIwc1G2-1" value="B" style="whiteSpace=wrap;strokeWidth=2;" vertex="1" parent="WIyWlLk6GJQsqaUBKTNV-1">
          <mxGeometry x="290" y="230" width="24" height="34" as="geometry" />
        </mxCell>
        <mxCell id="IfH2uEhnr56U0vIwc1G2-2" value="C" style="whiteSpace=wrap;strokeWidth=2;" vertex="1" parent="WIyWlLk6GJQsqaUBKTNV-1">
          <mxGeometry x="450" y="230" width="25" height="34" as="geometry" />
        </mxCell>
        <mxCell id="IfH2uEhnr56U0vIwc1G2-3" value="D" style="whiteSpace=wrap;strokeWidth=2;" vertex="1" parent="WIyWlLk6GJQsqaUBKTNV-1">
          <mxGeometry x="367" y="314" width="25" height="34" as="geometry" />
        </mxCell>
        <mxCell id="IfH2uEhnr56U0vIwc1G2-4" value="" style="curved=1;startArrow=none;endArrow=block;exitX=0.01141826923076923;exitY=0.9309285978542361;entryX=0.5013020833333334;entryY=0;rounded=0;" edge="1" parent="WIyWlLk6GJQsqaUBKTNV-1" source="IfH2uEhnr56U0vIwc1G2-0" target="IfH2uEhnr56U0vIwc1G2-1">
          <mxGeometry relative="1" as="geometry">
            <Array as="points">
              <mxPoint x="172" y="549" />
            </Array>
          </mxGeometry>
        </mxCell>
        <mxCell id="IfH2uEhnr56U0vIwc1G2-5" value="" style="curved=1;startArrow=none;endArrow=block;exitX=1.0114182692307692;exitY=0.9309285978542361;entryX=0.5025;entryY=0;rounded=0;" edge="1" parent="WIyWlLk6GJQsqaUBKTNV-1" source="IfH2uEhnr56U0vIwc1G2-0" target="IfH2uEhnr56U0vIwc1G2-2">
          <mxGeometry relative="1" as="geometry">
            <Array as="points">
              <mxPoint x="247" y="549" />
            </Array>
          </mxGeometry>
        </mxCell>
        <mxCell id="IfH2uEhnr56U0vIwc1G2-6" value="" style="curved=1;startArrow=none;endArrow=block;exitX=0.5013020833333334;exitY=1;entryX=-0.008125;entryY=0.08564557898631119;rounded=0;" edge="1" parent="WIyWlLk6GJQsqaUBKTNV-1" source="IfH2uEhnr56U0vIwc1G2-1" target="IfH2uEhnr56U0vIwc1G2-3">
          <mxGeometry relative="1" as="geometry">
            <Array as="points">
              <mxPoint x="342" y="289" />
            </Array>
          </mxGeometry>
        </mxCell>
        <mxCell id="IfH2uEhnr56U0vIwc1G2-7" value="" style="curved=1;startArrow=none;endArrow=block;exitX=0.5025;exitY=1;entryX=0.991875;entryY=0.08564557898631119;rounded=0;" edge="1" parent="WIyWlLk6GJQsqaUBKTNV-1" source="IfH2uEhnr56U0vIwc1G2-2" target="IfH2uEhnr56U0vIwc1G2-3">
          <mxGeometry relative="1" as="geometry">
            <Array as="points">
              <mxPoint x="417" y="289" />
            </Array>
          </mxGeometry>
        </mxCell>
      </root>
    </mxGraphModel>
  </diagram>
</mxfile>
